# xmcd
# Track frame offsets:
# 183
# 2805
# 15005
# 25330
# 36528
# 43560
# 51768
# 59360
# 69950
# 79985
# 92950
# 99948
# 108183
# 117923
# 128215
# 138790
# 147320
# 155710
# 165640
# 175560
# 188350
# 192848
#
# Disc length: 2632 seconds
# Revision: 0
# Processed by: cddbd v1.4PL0 Copyright (c) Steve Scherf et al.
# Submitted via: VisiTrax 2.9.5.180 - For more info visit www.synapsa.com
#
DISCID=180a4616
DTITLE=Faron Young - The Radio Show volume 3
DYEAR=1993
DGENRE=
TTITLE0=Introduction
TTITLE1=You don't know me
TTITLE2=A satisfied mind
TTITLE3=Walk tall
TTITLE4=Alone with you
TTITLE5=Humpty dumpty heart
TTITLE6=Walking the dog and painting the town
TTITLE7=Waterloo
TTITLE8=Don't just stand there
TTITLE9=Love me tender
TTITLE10=Blue, blue day
TTITLE11=Tiger by the tail
TTITLE12=Hello walls
TTITLE13=Here comes my baby
TTITLE14=Once a day
TTITLE15=Company's coming
TTITLE16=Won't you ride in my little red wagon
TTITLE17=Sawmill
TTITLE18=According to my heart
TTITLE19=Make the world go away
TTITLE20=Live spot: Pearl beer
TTITLE21=Sign off from Faron
EXTD=
EXTT0=
EXTT1=
EXTT2=
EXTT3=
EXTT4=
EXTT5=
EXTT6=
EXTT7=
EXTT8=
EXTT9=
EXTT10=
EXTT11=
EXTT12=
EXTT13=
EXTT14=
EXTT15=
EXTT16=
EXTT17=
EXTT18=
EXTT19=
EXTT20=
EXTT21=
PLAYORDER=
